<svg width="32" height="32" viewBox="0 0 32 32" fill="none" xmlns="http://www.w3.org/2000/svg">
  <defs>
    <!-- Pin gradient -->
    <radialGradient id="pinGrad" cx="38%" cy="32%" r="70%">
      <stop offset="0%" stop-color="#34d399"/>
      <stop offset="100%" stop-color="#059669"/>
    </radialGradient>

    <!-- Subtle background glow -->
    <radialGradient id="bgGlow" cx="50%" cy="50%" r="50%">
      <stop offset="0%" stop-color="#10b981" stop-opacity="0.12"/>
      <stop offset="100%" stop-color="#10b981" stop-opacity="0"/>
    </radialGradient>

    <!-- Drop shadow filter -->
    <filter id="pinShadow" x="-20%" y="-10%" width="140%" height="140%">
      <feDropShadow dx="0" dy="2" stdDeviation="1.5" flood-color="#059669" flood-opacity="0.35"/>
    </filter>

    <!-- Glow filter for ring -->
    <filter id="ringGlow" x="-15%" y="-15%" width="130%" height="130%">
      <feGaussianBlur stdDeviation="0.8" result="blur"/>
      <feMerge>
        <feMergeNode in="blur"/>
        <feMergeNode in="SourceGraphic"/>
      </feMerge>
    </filter>
  </defs>

  <!-- Background glow circle -->
  <circle cx="16" cy="16" r="15" fill="url(#bgGlow)"/>

  <!-- Full solid outer ring (thin, subtle) -->
  <circle cx="16" cy="16" r="13.5" stroke="#6ee7b7" stroke-width="1" opacity="0.4"/>

  <!-- Main styled ring with dash pattern -->
  <circle cx="16" cy="16" r="13.5"
          stroke="#10b981"
          stroke-width="2.2"
          stroke-linecap="round"
          stroke-dasharray="55 30"
          stroke-dashoffset="-8"
          filter="url(#ringGlow)"/>

  <!-- Second arc segment opposite side -->
  <circle cx="16" cy="16" r="13.5"
          stroke="#34d399"
          stroke-width="1.2"
          stroke-linecap="round"
          stroke-dasharray="18 72"
          stroke-dashoffset="30"
          opacity="0.6"/>

  <!-- Pin drop shadow blob -->
  <ellipse cx="16" cy="27.2" rx="3.5" ry="1.2" fill="#059669" opacity="0.18"/>

  <!-- Location pin body -->
  <path d="M16 25.8C15.7 25.4 9 17.8 9 13C9 9.13 12.134 6 16 6C19.866 6 23 9.13 23 13C23 17.8 16.3 25.4 16 25.8Z"
        fill="url(#pinGrad)"
        filter="url(#pinShadow)"/>

  <!-- Pin inner highlight -->
  <path d="M16 23C15.8 22.7 11 16.8 11 13C11 10.24 13.24 8 16 8C18.76 8 21 10.24 21 13C21 16.8 16.2 22.7 16 23Z"
        fill="#34d399"
        opacity="0.25"/>

  <!-- Inner white hole -->
  <circle cx="16" cy="13" r="3.2" fill="white" opacity="0.95"/>

  <!-- Inner hole glint -->
  <circle cx="15" cy="12" r="1" fill="white" opacity="0.5"/>
</svg>